<mxfile host="app.diagrams.net" modified="2024-06-27T10:20:35.774Z" agent="Mozilla/5.0 (X11; Linux x86_64) AppleWebKit/537.36 (KHTML, like Gecko) Chrome/118.0.0.0 Safari/537.36" etag="_njymgqV-4XhPM_qTHjS" version="24.4.13" type="device">
  <diagram name="Page-1" id="0vqGN8fUpIsYAhYPmTEw">
    <mxGraphModel dx="1210" dy="685" grid="1" gridSize="10" guides="1" tooltips="1" connect="1" arrows="1" fold="1" page="1" pageScale="1" pageWidth="850" pageHeight="1100" math="0" shadow="0">
      <root>
        <mxCell id="0" />
        <mxCell id="1" parent="0" />
        <mxCell id="xnF1Pvw-PKH41byiulPs-3" value="" style="edgeStyle=orthogonalEdgeStyle;rounded=0;orthogonalLoop=1;jettySize=auto;html=1;endArrow=none;endFill=0;" edge="1" parent="1" source="xnF1Pvw-PKH41byiulPs-1" target="xnF1Pvw-PKH41byiulPs-2">
          <mxGeometry relative="1" as="geometry">
            <Array as="points">
              <mxPoint x="420" y="400" />
              <mxPoint x="230" y="400" />
            </Array>
          </mxGeometry>
        </mxCell>
        <mxCell id="xnF1Pvw-PKH41byiulPs-5" value="" style="edgeStyle=orthogonalEdgeStyle;rounded=0;orthogonalLoop=1;jettySize=auto;html=1;endArrow=none;endFill=0;" edge="1" parent="1" source="xnF1Pvw-PKH41byiulPs-1" target="xnF1Pvw-PKH41byiulPs-4">
          <mxGeometry relative="1" as="geometry" />
        </mxCell>
        <mxCell id="xnF1Pvw-PKH41byiulPs-7" style="edgeStyle=orthogonalEdgeStyle;rounded=0;orthogonalLoop=1;jettySize=auto;html=1;endArrow=none;endFill=0;" edge="1" parent="1" source="xnF1Pvw-PKH41byiulPs-1" target="xnF1Pvw-PKH41byiulPs-6">
          <mxGeometry relative="1" as="geometry">
            <Array as="points">
              <mxPoint x="420" y="400" />
              <mxPoint x="610" y="400" />
            </Array>
          </mxGeometry>
        </mxCell>
        <mxCell id="xnF1Pvw-PKH41byiulPs-9" value="" style="edgeStyle=orthogonalEdgeStyle;rounded=0;orthogonalLoop=1;jettySize=auto;html=1;endArrow=none;endFill=0;" edge="1" parent="1" source="xnF1Pvw-PKH41byiulPs-1" target="xnF1Pvw-PKH41byiulPs-8">
          <mxGeometry relative="1" as="geometry" />
        </mxCell>
        <mxCell id="xnF1Pvw-PKH41byiulPs-1" value="docker0" style="rounded=0;whiteSpace=wrap;html=1;fillColor=#dae8fc;strokeColor=#6c8ebf;" vertex="1" parent="1">
          <mxGeometry x="360" y="320" width="120" height="60" as="geometry" />
        </mxCell>
        <mxCell id="xnF1Pvw-PKH41byiulPs-2" value="container A" style="rounded=0;whiteSpace=wrap;html=1;" vertex="1" parent="1">
          <mxGeometry x="170" y="440" width="120" height="60" as="geometry" />
        </mxCell>
        <mxCell id="xnF1Pvw-PKH41byiulPs-4" value="container B" style="rounded=0;whiteSpace=wrap;html=1;" vertex="1" parent="1">
          <mxGeometry x="360" y="440" width="120" height="60" as="geometry" />
        </mxCell>
        <mxCell id="xnF1Pvw-PKH41byiulPs-6" value="nginx container" style="rounded=0;whiteSpace=wrap;html=1;fillColor=#d5e8d4;strokeColor=#82b366;" vertex="1" parent="1">
          <mxGeometry x="550" y="440" width="120" height="60" as="geometry" />
        </mxCell>
        <mxCell id="xnF1Pvw-PKH41byiulPs-13" value="" style="edgeStyle=orthogonalEdgeStyle;rounded=0;orthogonalLoop=1;jettySize=auto;html=1;endArrow=none;endFill=0;" edge="1" parent="1" source="xnF1Pvw-PKH41byiulPs-8" target="xnF1Pvw-PKH41byiulPs-12">
          <mxGeometry relative="1" as="geometry">
            <Array as="points">
              <mxPoint x="538" y="130" />
              <mxPoint x="538" y="90" />
            </Array>
          </mxGeometry>
        </mxCell>
        <mxCell id="xnF1Pvw-PKH41byiulPs-15" value="" style="edgeStyle=orthogonalEdgeStyle;rounded=0;orthogonalLoop=1;jettySize=auto;html=1;endArrow=none;endFill=0;entryX=0;entryY=0.5;entryDx=0;entryDy=0;" edge="1" parent="1" source="xnF1Pvw-PKH41byiulPs-8" target="xnF1Pvw-PKH41byiulPs-14">
          <mxGeometry relative="1" as="geometry">
            <Array as="points">
              <mxPoint x="538" y="160" />
              <mxPoint x="538" y="190" />
            </Array>
          </mxGeometry>
        </mxCell>
        <mxCell id="xnF1Pvw-PKH41byiulPs-8" value="Linux Kernel (routing, netfilter, etc)" style="ellipse;whiteSpace=wrap;html=1;rounded=0;fillColor=#ffe6cc;strokeColor=#d79b00;" vertex="1" parent="1">
          <mxGeometry x="365" y="90" width="110" height="110" as="geometry" />
        </mxCell>
        <mxCell id="xnF1Pvw-PKH41byiulPs-12" value="enp1s0" style="whiteSpace=wrap;html=1;rounded=0;fillColor=#f8cecc;strokeColor=#b85450;" vertex="1" parent="1">
          <mxGeometry x="600" y="60" width="120" height="60" as="geometry" />
        </mxCell>
        <mxCell id="xnF1Pvw-PKH41byiulPs-14" value="wlp2s0" style="whiteSpace=wrap;html=1;rounded=0;fillColor=#e1d5e7;strokeColor=#9673a6;" vertex="1" parent="1">
          <mxGeometry x="600" y="160" width="120" height="60" as="geometry" />
        </mxCell>
        <mxCell id="xnF1Pvw-PKH41byiulPs-16" value="172.17.0.5" style="text;html=1;align=center;verticalAlign=middle;whiteSpace=wrap;rounded=0;" vertex="1" parent="1">
          <mxGeometry x="580" y="500" width="60" height="30" as="geometry" />
        </mxCell>
        <mxCell id="xnF1Pvw-PKH41byiulPs-17" value="172.17.x.x" style="text;html=1;align=center;verticalAlign=middle;whiteSpace=wrap;rounded=0;" vertex="1" parent="1">
          <mxGeometry x="390" y="500" width="60" height="30" as="geometry" />
        </mxCell>
        <mxCell id="xnF1Pvw-PKH41byiulPs-18" value="172.17.x.x" style="text;html=1;align=center;verticalAlign=middle;whiteSpace=wrap;rounded=0;" vertex="1" parent="1">
          <mxGeometry x="200" y="500" width="60" height="30" as="geometry" />
        </mxCell>
        <mxCell id="xnF1Pvw-PKH41byiulPs-19" value="172.17.0.1" style="text;html=1;align=center;verticalAlign=middle;whiteSpace=wrap;rounded=0;" vertex="1" parent="1">
          <mxGeometry x="360" y="290" width="60" height="30" as="geometry" />
        </mxCell>
        <mxCell id="xnF1Pvw-PKH41byiulPs-20" value="10.46.172.50" style="text;whiteSpace=wrap;" vertex="1" parent="1">
          <mxGeometry x="600" y="220" width="100" height="40" as="geometry" />
        </mxCell>
        <mxCell id="xnF1Pvw-PKH41byiulPs-21" value="10.46.172.85" style="text;whiteSpace=wrap;" vertex="1" parent="1">
          <mxGeometry x="600" y="120" width="100" height="40" as="geometry" />
        </mxCell>
      </root>
    </mxGraphModel>
  </diagram>
</mxfile>
